<svg xmlns="http://www.w3.org/2000/svg" width="453" height="221" fill="none" viewBox="0 0 453 221"><path fill="url(#a)" d="M20.14 173.58h-3.724V55.45h39.941c9.477 0 16.416 2.708 20.817 8.124 4.513 5.416 6.77 13.314 6.77 23.694 0 10.38-2.257 18.278-6.77 23.693-4.4 5.416-11.17 8.124-20.31 8.124l29.28 54.495H82.08l-28.94-54.495H20.14v54.495Zm36.555-57.88c7.673 0 13.427-2.031 17.263-6.093 3.949-4.174 5.923-9.985 5.923-17.431V82.36c0-7.447-1.974-13.201-5.923-17.263-3.836-4.174-9.59-6.262-17.263-6.262H20.14V115.7h36.555Zm56.631-60.25v76.159c0 7.446.508 13.764 1.523 18.954 1.016 5.078 2.708 9.252 5.077 12.524 2.37 3.159 5.529 5.472 9.478 6.939 3.949 1.467 8.857 2.2 14.724 2.2 5.867 0 10.775-.733 14.724-2.2s7.108-3.78 9.477-6.939c2.37-3.272 4.062-7.446 5.077-12.524 1.016-5.19 1.524-11.508 1.524-18.954V55.45h3.723v75.82c0 8.124-.621 15.006-1.862 20.647-1.128 5.642-3.046 10.211-5.754 13.709-2.708 3.497-6.262 6.036-10.662 7.616-4.4 1.579-9.816 2.369-16.247 2.369-6.431 0-11.847-.79-16.247-2.369-4.4-1.58-7.955-4.119-10.662-7.616-2.708-3.498-4.683-8.067-5.924-13.709-1.128-5.641-1.692-12.523-1.692-20.647V55.45h3.723Zm116.927 32.156-15.571-28.77h-.677V173.58h-3.723V55.45h6.431l46.372 85.974 15.57 28.771h.677V55.451h3.723V173.58h-6.431l-46.371-85.974Z"/><path fill="url(#b)" d="M309.213 173.58v-11.17h14.893V66.62h-14.893V55.45h43.326v11.17h-14.893v95.79h14.893v11.17h-43.326Zm71.471 0V55.45h63.804v11.847h-50.265v40.618h45.695v11.847h-45.695v53.818h-13.539Z"/><defs><linearGradient id="a" x1="127" x2="127" y1="173.58" y2="54" gradientUnits="userSpaceOnUse"><stop stop-color="#008091"/><stop offset="1" stop-color="#00F0D4"/></linearGradient><linearGradient id="b" x1="376.243" x2="376.243" y1="53" y2="173.58" gradientUnits="userSpaceOnUse"><stop stop-color="#008091"/><stop offset="1" stop-color="#00F0D4"/></linearGradient></defs></svg>