<svg fill="none" height="221" viewBox="0 0 463 221" width="463" xmlns="http://www.w3.org/2000/svg" xmlns:xlink="http://www.w3.org/1999/xlink"><linearGradient id="a"><stop offset="0" stop-color="#ffb319"/><stop offset=".0625" stop-color="#ffb219"/><stop offset=".125" stop-color="#feb01b"/><stop offset=".1875" stop-color="#fead1d"/><stop offset=".25" stop-color="#fca821"/><stop offset=".3125" stop-color="#fba225"/><stop offset=".375" stop-color="#f99a2b"/><stop offset=".4375" stop-color="#f79231"/><stop offset=".5" stop-color="#f58739"/><stop offset=".5625" stop-color="#f27c41"/><stop offset=".625" stop-color="#ef6f4a"/><stop offset=".6875" stop-color="#ec6055"/><stop offset=".75" stop-color="#e85160"/><stop offset=".8125" stop-color="#e43f6c"/><stop offset=".875" stop-color="#e02d79"/><stop offset=".9375" stop-color="#db1988"/><stop offset="1" stop-color="#d60497"/></linearGradient><linearGradient id="b" gradientUnits="userSpaceOnUse" x1="99" x2="100" xlink:href="#a" y1="54" y2="173.58"/><linearGradient id="c" gradientUnits="userSpaceOnUse" x1="335" x2="333.71" xlink:href="#a" y1="173.58" y2="56.0141"/><path d="m20.1396 173.58h-3.7233v-118.1295h39.9407c9.4774 0 16.4163 2.7078 20.8165 8.1235 4.5131 5.4157 6.7696 13.3135 6.7696 23.6936s-2.2565 18.2784-6.7696 23.6934c-4.4002 5.416-11.1698 8.124-20.3088 8.124l29.2785 54.495h-4.0617l-28.9401-54.495h-33.0018zm36.5558-57.88c7.6723 0 13.4264-2.031 17.2625-6.093 3.949-4.174 5.9234-9.9849 5.9234-17.4314v-9.816c0-7.4465-1.9744-13.2007-5.9234-17.2624-3.8361-4.1746-9.5902-6.2619-17.2625-6.2619h-36.5558v56.8647zm56.6306-60.2495v76.1585c0 7.446.508 13.764 1.523 18.954 1.016 5.078 2.708 9.252 5.077 12.524 2.37 3.159 5.529 5.472 9.478 6.939s8.857 2.2 14.724 2.2 10.775-.733 14.724-2.2 7.108-3.78 9.477-6.939c2.37-3.272 4.062-7.446 5.077-12.524 1.016-5.19 1.524-11.508 1.524-18.954v-76.1585h3.723v75.8195c0 8.124-.621 15.006-1.862 20.647-1.128 5.642-3.046 10.211-5.754 13.709-2.708 3.497-6.262 6.036-10.662 7.616-4.4 1.579-9.816 2.369-16.247 2.369s-11.847-.79-16.247-2.369c-4.4-1.58-7.955-4.119-10.662-7.616-2.708-3.498-4.683-8.067-5.924-13.709-1.128-5.641-1.692-12.523-1.692-20.647v-75.8195zm116.927 32.1556-15.571-28.7708h-.677v114.7447h-3.723v-118.1295h6.431l46.372 85.9735 15.57 28.771h.677v-114.7445h3.723v118.1295h-6.431z" fill="url(#b)"/><path d="m307.859 173.58v-19.124h13.878v-79.8814h-13.878v-19.1241h51.957v19.1241h-13.878v79.8814h13.878v19.124zm76.236 0v-118.1295h71.081v21.155h-46.879v26.7395h39.771v20.986h-39.771v49.249z" fill="url(#c)"/></svg>